<?xml version="1.0" encoding="UTF-8"?>
<svg xmlns="http://www.w3.org/2000/svg" version="1.1" viewBox="0 0 24 24">
  <defs>
    <style>
      .cls-1 {
        fill: #e8eaed;
      }
    </style>
  </defs>
  <!-- Generator: Adobe Illustrator 28.6.0, SVG Export Plug-In . SVG Version: 1.2.0 Build 709)  -->
  <g>
    <g id="_Слой_1" data-name="Слой_1">
      <path class="cls-1" d="M5.7,18.3h0c-.4-.4-.4-1,0-1.4l4.2-4.2c.4-.4.4-1,0-1.4l-4.2-4.2c-.4-.4-.4-1,0-1.4h0c.4-.4,1-.4,1.4,0l4.2,4.2c.4.4,1,.4,1.4,0l4.2-4.2c.4-.4,1-.4,1.4,0h0c.4.4.4,1,0,1.4l-4.2,4.2c-.4.4-.4,1,0,1.4l4.2,4.2c.4.4.4,1,0,1.4h0c-.4.4-1,.4-1.4,0l-4.2-4.2c-.4-.4-1-.4-1.4,0l-4.2,4.2c-.4.4-1,.4-1.4,0Z"/>
    </g>
  </g>
</svg>