<?xml version="1.0" encoding="UTF-8"?>
<svg xmlns="http://www.w3.org/2000/svg" version="1.1" viewBox="0 0 24 24">
  <defs>
    <style>
      .cls-1 {
        fill: #e8eaed;
      }
    </style>
  </defs>
  <!-- Generator: Adobe Illustrator 28.6.0, SVG Export Plug-In . SVG Version: 1.2.0 Build 709)  -->
  <g>
    <g id="_Слой_1" data-name="Слой_1">
      <path class="cls-1" d="M11,14h2c.6,0,1-.4,1-1h0c0-.6-.4-1-1-1h-2c-.6,0-1,.4-1,1h0c0,.6.4,1,1,1ZM11,11h6c.6,0,1-.4,1-1h0c0-.6-.4-1-1-1h-6c-.6,0-1,.4-1,1h0c0,.6.4,1,1,1ZM11,8h6c.6,0,1-.4,1-1h0c0-.6-.4-1-1-1h-6c-.6,0-1,.4-1,1h0c0,.6.4,1,1,1ZM8,18c-.6,0-1-.2-1.4-.6-.4-.4-.6-.9-.6-1.4V4c0-.6.2-1,.6-1.4.4-.4.9-.6,1.4-.6h12c.6,0,1,.2,1.4.6s.6.9.6,1.4v12c0,.6-.2,1-.6,1.4-.4.4-.9.6-1.4.6h-12ZM9,16h10c.6,0,1-.4,1-1V5c0-.6-.4-1-1-1h-10c-.6,0-1,.4-1,1v10c0,.6.4,1,1,1ZM4,22c-.6,0-1-.2-1.4-.6s-.6-.9-.6-1.4V7c0-.6.4-1,1-1h0c.6,0,1,.4,1,1v12c0,.6.4,1,1,1h12c.6,0,1,.4,1,1h0c0,.6-.4,1-1,1H4ZM8,4v12V4Z"/>
    </g>
  </g>
</svg>