<?xml version="1.0" encoding="UTF-8"?>
<svg xmlns="http://www.w3.org/2000/svg" version="1.1" viewBox="0 0 24 24">
  <defs>
    <style>
      .cls-1 {
        fill: #e8eaed;
      }
    </style>
  </defs>
  <!-- Generator: Adobe Illustrator 28.6.0, SVG Export Plug-In . SVG Version: 1.2.0 Build 709)  -->
  <g>
    <g id="_Слой_1" data-name="Слой_1">
      <path class="cls-1" d="M11.3,13.5c.6,0,1.2-.2,1.6-.7.4-.4.7-1,.7-1.6s-.2-1.2-.7-1.6c-.4-.4-1-.7-1.6-.7s-1.2.2-1.6.7-.7,1-.7,1.6.2,1.2.7,1.6,1,.7,1.6.7ZM15.4,16.8l-1.4-1.4c-.3-.3-.7-.4-1.1-.2s-.3.1-.5.2c-.4.1-.8.2-1.1.2-1.2,0-2.2-.4-3-1.2s-1.2-1.8-1.2-3,.4-2.2,1.2-3,1.8-1.2,3-1.2,2.2.4,3,1.2,1.2,1.8,1.2,3,0,.8-.2,1.1-.1.3-.2.5c-.2.4,0,.8.2,1.1l1.4,1.4c.4.4.4,1,0,1.4h0c-.4.4-1,.4-1.4,0ZM5,21c-.6,0-1-.2-1.4-.6-.4-.4-.6-.9-.6-1.4v-3c0-.6.4-1,1-1h0c.6,0,1,.4,1,1v2c0,.6.4,1,1,1h2c.6,0,1,.4,1,1h0c0,.6-.4,1-1,1h-3ZM15,20h0c0-.6.4-1,1-1h2c.6,0,1-.4,1-1v-2c0-.6.4-1,1-1h0c.6,0,1,.4,1,1v3c0,.6-.2,1-.6,1.4-.4.4-.9.6-1.4.6h-3c-.6,0-1-.4-1-1ZM4,9c-.6,0-1-.4-1-1v-3c0-.6.2-1,.6-1.4.4-.4.9-.6,1.4-.6h3c.6,0,1,.4,1,1h0c0,.6-.4,1-1,1h-2c-.6,0-1,.4-1,1v2c0,.6-.4,1-1,1h0ZM19,8v-2c0-.6-.4-1-1-1h-2c-.6,0-1-.4-1-1h0c0-.6.4-1,1-1h3c.6,0,1,.2,1.4.6s.6.9.6,1.4v3c0,.6-.4,1-1,1h0c-.6,0-1-.4-1-1Z"/>
    </g>
  </g>
</svg>